# xmcd
#
# Track frame offsets:
#	150
#	22945
#	36680
#	48754
#	63103
#	73518
#	89528
#	99602
#	114273
#	128808
#
# Disc length: 2117 seconds
#
# Revision: 0
# Processed by: cddbd v1.4PL0 Copyright (c) Steve Scherf et al.
# Submitted via: EasyCDDAExtractor 4.6.0.1
#
DISCID=7f08430a
DTITLE=Various Artist - Christmas With Country's Finest Volume 1
DYEAR=1900
DGENRE=Xmas
TTITLE0=The Twelve Days Of Christmas-Lee Greenwood
TTITLE1=Hallelujah-Crystal Gayle
TTITLE2=Joy To The World-Micky Gilley
TTITLE3=Deck The Halls-Loretta Lynn
TTITLE4=I Heard The Bells On Christmas Day-Larry Gatlin
TTITLE5=It Came Upon A Midnight CLeat-Roy Clark
TTITLE6=Santa Clause And Popcorn-Merle Haggard
TTITLE7=All I Want For Christmas Dear Is You-Louise Mandrell
TTITLE8=O Come, All Ye Faithful-Waylon Jennings
TTITLE9=Silent Night-Willie Nelson
EXTD=
EXTT0=
EXTT1=
EXTT2=
EXTT3=
EXTT4=
EXTT5=
EXTT6=
EXTT7=
EXTT8=
EXTT9=
PLAYORDER=
